<?xml version="1.0" encoding="UTF-8" standalone="no"?>
<!DOCTYPE svg PUBLIC "-//W3C//DTD SVG 1.0//EN"
 "http://www.w3.org/TR/2001/REC-SVG-20010904/DTD/svg10.dtd" [
 <!ATTLIST svg xmlns:xlink CDATA #FIXED "http://www.w3.org/1999/xlink">
]>
<!-- Generated by Graphviz version 2.20.3 (Tue Mar &#160;3 02:10:10 UTC 2009)
     For user: (david) David -->
<!-- Title: RJack Gem Dependency Graph Pages: 1 -->
<svg width="540pt" height="228pt"
 viewBox="0.00 0.00 540.00 227.84" xmlns="http://www.w3.org/2000/svg" xmlns:xlink="http://www.w3.org/1999/xlink">
<g id="graph0" class="graph" transform="scale(0.643623 0.643623) rotate(0) translate(4 350)">
<title>RJack Gem Dependency Graph</title>
<polygon style="fill:white;stroke:white;" points="-4,4 -4,-350 835,-350 835,4 -4,4"/>
<!-- rjack&#45;jets3t -->
<g id="node1" class="node"><title>rjack&#45;jets3t</title>
<a xlink:href="jets3t/" xlink:title="rjack&#45;jets3t" target="_parent">
<polygon style="fill:#f8df8b;stroke:black;" points="183,-346 69,-346 69,-310 183,-310 183,-346"/>
<text text-anchor="middle" x="126" y="-323.4" style="font-family:Arial;font-size:14.00;">rjack&#45;jets3t</text>
</a>
</g>
<!-- rjack&#45;httpclient -->
<g id="node3" class="node"><title>rjack&#45;httpclient</title>
<a xlink:href="httpclient-3/" xlink:title="rjack&#45;httpclient&#45;[3,4]" target="_parent">
<polygon style="fill:#f8df8b;stroke:black;" points="126,-236 126,-272 298,-272 298,-236 126,-236"/>
<text text-anchor="middle" x="212" y="-252.4" style="font-family:Arial;font-size:14.00;">rjack&#45;httpclient&#45;[3,4]</text>
</a>
</g>
<!-- rjack&#45;jets3t&#45;&gt;rjack&#45;httpclient -->
<g id="edge2" class="edge"><title>rjack&#45;jets3t&#45;&gt;rjack&#45;httpclient</title>
<path style="fill:none;stroke:black;" d="M147,-310C158,-300 172,-289 183,-279"/>
<polygon style="fill:black;stroke:black;" points="185.779,-281.219 191,-272 181.169,-275.951 185.779,-281.219"/>
</g>
<!-- rjack&#45;commons&#45;codec -->
<g id="node5" class="node"><title>rjack&#45;commons&#45;codec</title>
<a xlink:href="commons-codec/" xlink:title="rjack&#45;commons&#45;codec" target="_parent">
<polygon style="fill:#f8df8b;stroke:black;" points="186,-164 4.4402e-14,-164 1.9984e-15,-128 186,-128 186,-164"/>
<text text-anchor="middle" x="93" y="-141.4" style="font-family:Arial;font-size:14.00;">rjack&#45;commons&#45;codec</text>
</a>
</g>
<!-- rjack&#45;jets3t&#45;&gt;rjack&#45;commons&#45;codec -->
<g id="edge4" class="edge"><title>rjack&#45;jets3t&#45;&gt;rjack&#45;commons&#45;codec</title>
<path style="fill:none;stroke:black;" d="M123,-310C117,-278 104,-212 98,-174"/>
<polygon style="fill:black;stroke:black;" points="101.393,-173.119 96,-164 94.5292,-174.492 101.393,-173.119"/>
</g>
<!-- rjack&#45;httpclient&#45;&gt;rjack&#45;commons&#45;codec -->
<g id="edge9" class="edge"><title>rjack&#45;httpclient&#45;&gt;rjack&#45;commons&#45;codec</title>
<path style="fill:none;stroke:black;" d="M192,-236C172,-218 143,-191 121,-171"/>
<polygon style="fill:black;stroke:black;" points="122.831,-167.951 113,-164 118.221,-173.219 122.831,-167.951"/>
</g>
<!-- rjack&#45;logback -->
<g id="node12" class="node"><title>rjack&#45;logback</title>
<a xlink:href="logback/" xlink:title="rjack&#45;logback" target="_parent">
<polygon style="fill:#f8df8b;stroke:black;" points="370,-164 242,-164 242,-128 370,-128 370,-164"/>
<text text-anchor="middle" x="306" y="-141.4" style="font-family:Arial;font-size:14.00;">rjack&#45;logback</text>
</a>
</g>
<!-- rjack&#45;httpclient&#45;&gt;rjack&#45;logback -->
<g id="edge11" class="edge"><title>rjack&#45;httpclient&#45;&gt;rjack&#45;logback</title>
<path style="fill:none;stroke:black;stroke-dasharray:5,2;" d="M228,-236C244,-218 267,-192 283,-172"/>
<polygon style="fill:black;stroke:black;" points="286.049,-173.831 290,-164 280.781,-169.221 286.049,-173.831"/>
<text text-anchor="middle" x="285" y="-195.9" style="font-family:Times New Roman;font-size:14.00;">dev</text>
</g>
<!-- rjack&#45;slf4j -->
<g id="node14" class="node"><title>rjack&#45;slf4j</title>
<a xlink:href="slf4j/" xlink:title="rjack&#45;slf4j" target="_parent">
<polygon style="fill:#f8df8b;stroke:black;" points="358,-90 254,-90 254,-54 358,-54 358,-90"/>
<text text-anchor="middle" x="306" y="-67.4" style="font-family:Arial;font-size:14.00;">rjack&#45;slf4j</text>
</a>
</g>
<!-- rjack&#45;httpclient&#45;&gt;rjack&#45;slf4j -->
<g id="edge13" class="edge"><title>rjack&#45;httpclient&#45;&gt;rjack&#45;slf4j</title>
<path style="fill:none;stroke:black;" d="M211,-236C210,-210 212,-162 233,-128 240,-115 252,-104 264,-96"/>
<polygon style="fill:black;stroke:black;" points="266.1,-98.8 272,-90 261.9,-93.2 266.1,-98.8"/>
</g>
<!-- rjack&#45;rome -->
<g id="node7" class="node"><title>rjack&#45;rome</title>
<a xlink:href="rome/" xlink:title="rjack&#45;rome" target="_parent">
<polygon style="fill:#f8df8b;stroke:black;" points="583,-346 471,-346 471,-310 583,-310 583,-346"/>
<text text-anchor="middle" x="527" y="-323.4" style="font-family:Arial;font-size:14.00;">rjack&#45;rome</text>
</a>
</g>
<!-- rjack&#45;jdom -->
<g id="node8" class="node"><title>rjack&#45;jdom</title>
<a xlink:href="jdom/" xlink:title="rjack&#45;jdom" target="_parent">
<polygon style="fill:#f8df8b;stroke:black;" points="582,-218 472,-218 472,-182 582,-182 582,-218"/>
<text text-anchor="middle" x="527" y="-195.4" style="font-family:Arial;font-size:14.00;">rjack&#45;jdom</text>
</a>
</g>
<!-- rjack&#45;rome&#45;&gt;rjack&#45;jdom -->
<g id="edge7" class="edge"><title>rjack&#45;rome&#45;&gt;rjack&#45;jdom</title>
<path style="fill:none;stroke:black;" d="M527,-310C527,-289 527,-253 527,-228"/>
<polygon style="fill:black;stroke:black;" points="530.5,-228 527,-218 523.5,-228 530.5,-228"/>
</g>
<!-- rjack&#45;logback&#45;&gt;rjack&#45;slf4j -->
<g id="edge21" class="edge"><title>rjack&#45;logback&#45;&gt;rjack&#45;slf4j</title>
<path style="fill:none;stroke:black;" d="M306,-128C306,-119 306,-110 306,-100"/>
<polygon style="fill:black;stroke:black;" points="309.5,-100 306,-90 302.5,-100 309.5,-100"/>
</g>
<!-- rjack&#45;jetty -->
<g id="node15" class="node"><title>rjack&#45;jetty</title>
<a xlink:href="jetty/" xlink:title="rjack&#45;jetty" target="_parent">
<polygon style="fill:#f8df8b;stroke:black;" points="442,-272 334,-272 334,-236 442,-236 442,-272"/>
<text text-anchor="middle" x="388" y="-249.4" style="font-family:Arial;font-size:14.00;">rjack&#45;jetty</text>
</a>
</g>
<!-- rjack&#45;jetty&#45;&gt;rjack&#45;logback -->
<g id="edge17" class="edge"><title>rjack&#45;jetty&#45;&gt;rjack&#45;logback</title>
<path style="fill:none;stroke:black;stroke-dasharray:5,2;" d="M374,-236C361,-219 341,-192 326,-172"/>
<polygon style="fill:black;stroke:black;" points="328.8,-169.9 320,-164 323.2,-174.1 328.8,-169.9"/>
<text text-anchor="middle" x="373" y="-195.9" style="font-family:Times New Roman;font-size:14.00;">dev</text>
</g>
<!-- rjack&#45;jetty&#45;&gt;rjack&#45;slf4j -->
<g id="edge19" class="edge"><title>rjack&#45;jetty&#45;&gt;rjack&#45;slf4j</title>
<path style="fill:none;stroke:black;stroke-dasharray:5,2;" d="M392,-236C396,-209 399,-161 379,-128 371,-115 359,-105 347,-96"/>
<polygon style="fill:black;stroke:black;" points="349.1,-93.2 339,-90 344.9,-98.8 349.1,-93.2"/>
<text text-anchor="middle" x="402" y="-141.9" style="font-family:Times New Roman;font-size:14.00;">opt</text>
</g>
<!-- rjack&#45;jetty&#45;jsp -->
<g id="node16" class="node"><title>rjack&#45;jetty&#45;jsp</title>
<a xlink:href="jetty-jsp/" xlink:title="rjack&#45;jetty&#45;jsp" target="_parent">
<polygon style="fill:#f8df8b;stroke:black;" points="453,-346 323,-346 323,-310 453,-310 453,-346"/>
<text text-anchor="middle" x="388" y="-323.4" style="font-family:Arial;font-size:14.00;">rjack&#45;jetty&#45;jsp</text>
</a>
</g>
<!-- rjack&#45;jetty&#45;jsp&#45;&gt;rjack&#45;jetty -->
<g id="edge15" class="edge"><title>rjack&#45;jetty&#45;jsp&#45;&gt;rjack&#45;jetty</title>
<path style="fill:none;stroke:black;" d="M388,-310C388,-301 388,-292 388,-282"/>
<polygon style="fill:black;stroke:black;" points="391.5,-282 388,-272 384.5,-282 391.5,-282"/>
</g>
<!-- rjack&#45;commons&#45;dbcp -->
<g id="node22" class="node"><title>rjack&#45;commons&#45;dbcp</title>
<a xlink:href="commons-dbcp/" xlink:title="rjack&#45;commons&#45;dbcp" target="_parent">
<polygon style="fill:#f8df8b;stroke:black;" points="625,-164 447,-164 447,-128 625,-128 625,-164"/>
<text text-anchor="middle" x="536" y="-141.4" style="font-family:Arial;font-size:14.00;">rjack&#45;commons&#45;dbcp</text>
</a>
</g>
<!-- rjack&#45;commons&#45;pool -->
<g id="node24" class="node"><title>rjack&#45;commons&#45;pool</title>
<a xlink:href="commons-pool/" xlink:title="rjack&#45;commons&#45;pool" target="_parent">
<polygon style="fill:#f8df8b;stroke:black;" points="623,-90 449,-90 449,-54 623,-54 623,-90"/>
<text text-anchor="middle" x="536" y="-67.4" style="font-family:Arial;font-size:14.00;">rjack&#45;commons&#45;pool</text>
</a>
</g>
<!-- rjack&#45;commons&#45;dbcp&#45;&gt;rjack&#45;commons&#45;pool -->
<g id="edge24" class="edge"><title>rjack&#45;commons&#45;dbcp&#45;&gt;rjack&#45;commons&#45;pool</title>
<path style="fill:none;stroke:black;" d="M536,-128C536,-119 536,-110 536,-100"/>
<polygon style="fill:black;stroke:black;" points="539.5,-100 536,-90 532.5,-100 539.5,-100"/>
</g>
<!-- rjack&#45;commons&#45;dbutils -->
<g id="node23" class="node"><title>rjack&#45;commons&#45;dbutils</title>
<a xlink:href="commons-dbutils/" xlink:title="rjack&#45;commons&#45;dbutils" target="_parent">
<polygon style="fill:#f8df8b;stroke:black;" points="831,-164 643,-164 643,-128 831,-128 831,-164"/>
<text text-anchor="middle" x="737" y="-141.4" style="font-family:Arial;font-size:14.00;">rjack&#45;commons&#45;dbutils</text>
</a>
</g>
<!-- rjack&#45;tarpit -->
<g id="node27" class="node"><title>rjack&#45;tarpit</title>
<a xlink:href="tarpit/" xlink:title="rjack&#45;tarpit" target="_parent">
<polygon style="fill:#f8df8b;stroke:black;" points="362,-36 250,-36 250,-1.06581e-14 362,-0 362,-36"/>
<text text-anchor="middle" x="306" y="-13.4" style="font-family:Arial;font-size:14.00;">rjack&#45;tarpit</text>
</a>
</g>
</g>
</svg>
