<?xml version="1.0" encoding="UTF-8" standalone="no"?>
<!DOCTYPE svg PUBLIC "-//W3C//DTD SVG 1.0//EN"
 "http://www.w3.org/TR/2001/REC-SVG-20010904/DTD/svg10.dtd" [
 <!ATTLIST svg xmlns:xlink CDATA #FIXED "http://www.w3.org/1999/xlink">
]>
<!-- Generated by Graphviz version 2.20.3 (Tue Mar &#160;3 02:10:10 UTC 2009)
     For user: (david) David -->
<!-- Title: RJack Gem Dependency Graph Pages: 1 -->
<svg width="533pt" height="200pt"
 viewBox="0.00 0.00 533.00 200.30" xmlns="http://www.w3.org/2000/svg" xmlns:xlink="http://www.w3.org/1999/xlink">
<g id="graph0" class="graph" transform="scale(0.565817 0.565817) rotate(0) translate(4 350)">
<title>RJack Gem Dependency Graph</title>
<polygon style="fill:none;stroke:none;" points="-4,4 -4,-350 938,-350 938,4 -4,4"/>
<!-- rjack&#45;jets3t -->
<g id="node1" class="node"><title>rjack&#45;jets3t</title>
<a xlink:href="jets3t/" xlink:title="rjack&#45;jets3t" target="_parent">
<polygon style="fill:#f8df8b;stroke:#f8df8b;" points="327,-346 237,-346 225,-334 225,-322 237,-310 327,-310 339,-322 339,-334 327,-346"/>
<path style="fill:#f8df8b;stroke:#f8df8b;" d="M237,-346C231,-346 225,-340 225,-334"/>
<path style="fill:#f8df8b;stroke:#f8df8b;" d="M225,-322C225,-316 231,-310 237,-310"/>
<path style="fill:#f8df8b;stroke:#f8df8b;" d="M327,-310C333,-310 339,-316 339,-322"/>
<path style="fill:#f8df8b;stroke:#f8df8b;" d="M339,-334C339,-340 333,-346 327,-346"/>
<polyline style="fill:none;stroke:black;" points="327,-346 237,-346 "/>
<path style="fill:none;stroke:black;" d="M237,-346C231,-346 225,-340 225,-334"/>
<polyline style="fill:none;stroke:black;" points="225,-334 225,-322 "/>
<path style="fill:none;stroke:black;" d="M225,-322C225,-316 231,-310 237,-310"/>
<polyline style="fill:none;stroke:black;" points="237,-310 327,-310 "/>
<path style="fill:none;stroke:black;" d="M327,-310C333,-310 339,-316 339,-322"/>
<polyline style="fill:none;stroke:black;" points="339,-322 339,-334 "/>
<path style="fill:none;stroke:black;" d="M339,-334C339,-340 333,-346 327,-346"/>
<text text-anchor="middle" x="282" y="-323.4" style="font-family:Arial;font-size:14.00;">rjack&#45;jets3t</text>
</a>
</g>
<!-- rjack&#45;httpclient -->
<g id="node3" class="node"><title>rjack&#45;httpclient</title>
<a xlink:href="httpclient-3/" xlink:title="rjack&#45;httpclient&#45;[3,4]" target="_parent">
<polygon style="fill:#f8df8b;stroke:#f8df8b;" points="129,-236 277,-236 289,-248 289,-260 277,-272 129,-272 117,-260 117,-248 129,-236"/>
<path style="fill:#f8df8b;stroke:#f8df8b;" d="M277,-236C283,-236 289,-242 289,-248"/>
<path style="fill:#f8df8b;stroke:#f8df8b;" d="M289,-260C289,-266 283,-272 277,-272"/>
<path style="fill:#f8df8b;stroke:#f8df8b;" d="M129,-272C123,-272 117,-266 117,-260"/>
<path style="fill:#f8df8b;stroke:#f8df8b;" d="M117,-248C117,-242 123,-236 129,-236"/>
<polyline style="fill:none;stroke:black;" points="129,-236 277,-236 "/>
<path style="fill:none;stroke:black;" d="M277,-236C283,-236 289,-242 289,-248"/>
<polyline style="fill:none;stroke:black;" points="289,-248 289,-260 "/>
<path style="fill:none;stroke:black;" d="M289,-260C289,-266 283,-272 277,-272"/>
<polyline style="fill:none;stroke:black;" points="277,-272 129,-272 "/>
<path style="fill:none;stroke:black;" d="M129,-272C123,-272 117,-266 117,-260"/>
<polyline style="fill:none;stroke:black;" points="117,-260 117,-248 "/>
<path style="fill:none;stroke:black;" d="M117,-248C117,-242 123,-236 129,-236"/>
<text text-anchor="middle" x="203" y="-252.4" style="font-family:Arial;font-size:14.00;">rjack&#45;httpclient&#45;[3,4]</text>
</a>
</g>
<!-- rjack&#45;jets3t&#45;&gt;rjack&#45;httpclient -->
<g id="edge2" class="edge"><title>rjack&#45;jets3t&#45;&gt;rjack&#45;httpclient</title>
<path style="fill:none;stroke:black;" d="M262,-310C252,-300 240,-289 229,-279"/>
<polygon style="fill:black;stroke:black;" points="231.546,-276.596 222,-272 226.596,-281.546 231.546,-276.596"/>
</g>
<!-- rjack&#45;commons&#45;codec -->
<g id="node5" class="node"><title>rjack&#45;commons&#45;codec</title>
<a xlink:href="commons-codec/" xlink:title="rjack&#45;commons&#45;codec" target="_parent">
<polygon style="fill:#f8df8b;stroke:#f8df8b;" points="174,-164 12,-164 3.02675e-14,-152 1.61329e-14,-140 12,-128 174,-128 186,-140 186,-152 174,-164"/>
<path style="fill:#f8df8b;stroke:#f8df8b;" d="M12,-164C6,-164 3.73347e-14,-158 3.02675e-14,-152"/>
<path style="fill:#f8df8b;stroke:#f8df8b;" d="M1.61329e-14,-140C9.06566e-15,-134 6,-128 12,-128"/>
<path style="fill:#f8df8b;stroke:#f8df8b;" d="M174,-128C180,-128 186,-134 186,-140"/>
<path style="fill:#f8df8b;stroke:#f8df8b;" d="M186,-152C186,-158 180,-164 174,-164"/>
<polyline style="fill:none;stroke:black;" points="174,-164 12,-164 "/>
<path style="fill:none;stroke:black;" d="M12,-164C6,-164 3.73347e-14,-158 3.02675e-14,-152"/>
<polyline style="fill:none;stroke:black;" points="3.02675e-14,-152 1.61329e-14,-140 "/>
<path style="fill:none;stroke:black;" d="M1.61329e-14,-140C9.06566e-15,-134 6,-128 12,-128"/>
<polyline style="fill:none;stroke:black;" points="12,-128 174,-128 "/>
<path style="fill:none;stroke:black;" d="M174,-128C180,-128 186,-134 186,-140"/>
<polyline style="fill:none;stroke:black;" points="186,-140 186,-152 "/>
<path style="fill:none;stroke:black;" d="M186,-152C186,-158 180,-164 174,-164"/>
<text text-anchor="middle" x="93" y="-141.4" style="font-family:Arial;font-size:14.00;">rjack&#45;commons&#45;codec</text>
</a>
</g>
<!-- rjack&#45;jets3t&#45;&gt;rjack&#45;commons&#45;codec -->
<g id="edge4" class="edge"><title>rjack&#45;jets3t&#45;&gt;rjack&#45;commons&#45;codec</title>
<path style="fill:none;stroke:black;" d="M225,-316C180,-306 123,-290 108,-272 86,-245 86,-202 89,-174"/>
<polygon style="fill:black;stroke:black;" points="92.4875,-174.299 90,-164 85.5222,-173.602 92.4875,-174.299"/>
</g>
<!-- rjack&#45;slf4j -->
<g id="node7" class="node"><title>rjack&#45;slf4j</title>
<a xlink:href="slf4j/" xlink:title="rjack&#45;slf4j" target="_parent">
<polygon style="fill:#f8df8b;stroke:#f8df8b;" points="449,-90 369,-90 357,-78 357,-66 369,-54 449,-54 461,-66 461,-78 449,-90"/>
<path style="fill:#f8df8b;stroke:#f8df8b;" d="M369,-90C363,-90 357,-84 357,-78"/>
<path style="fill:#f8df8b;stroke:#f8df8b;" d="M357,-66C357,-60 363,-54 369,-54"/>
<path style="fill:#f8df8b;stroke:#f8df8b;" d="M449,-54C455,-54 461,-60 461,-66"/>
<path style="fill:#f8df8b;stroke:#f8df8b;" d="M461,-78C461,-84 455,-90 449,-90"/>
<polyline style="fill:none;stroke:black;" points="449,-90 369,-90 "/>
<path style="fill:none;stroke:black;" d="M369,-90C363,-90 357,-84 357,-78"/>
<polyline style="fill:none;stroke:black;" points="357,-78 357,-66 "/>
<path style="fill:none;stroke:black;" d="M357,-66C357,-60 363,-54 369,-54"/>
<polyline style="fill:none;stroke:black;" points="369,-54 449,-54 "/>
<path style="fill:none;stroke:black;" d="M449,-54C455,-54 461,-60 461,-66"/>
<polyline style="fill:none;stroke:black;" points="461,-66 461,-78 "/>
<path style="fill:none;stroke:black;" d="M461,-78C461,-84 455,-90 449,-90"/>
<text text-anchor="middle" x="409" y="-67.4" style="font-family:Arial;font-size:14.00;">rjack&#45;slf4j</text>
</a>
</g>
<!-- rjack&#45;jets3t&#45;&gt;rjack&#45;slf4j -->
<g id="edge6" class="edge"><title>rjack&#45;jets3t&#45;&gt;rjack&#45;slf4j</title>
<path style="fill:none;stroke:black;" d="M287,-310C290,-299 294,-284 298,-272 315,-208 299,-183 336,-128 344,-115 356,-105 368,-96"/>
<polygon style="fill:black;stroke:black;" points="370.1,-98.8 376,-90 365.9,-93.2 370.1,-98.8"/>
</g>
<!-- rjack&#45;logback -->
<g id="node9" class="node"><title>rjack&#45;logback</title>
<a xlink:href="logback/" xlink:title="rjack&#45;logback" target="_parent">
<polygon style="fill:#f8df8b;stroke:#f8df8b;" points="461,-164 357,-164 345,-152 345,-140 357,-128 461,-128 473,-140 473,-152 461,-164"/>
<path style="fill:#f8df8b;stroke:#f8df8b;" d="M357,-164C351,-164 345,-158 345,-152"/>
<path style="fill:#f8df8b;stroke:#f8df8b;" d="M345,-140C345,-134 351,-128 357,-128"/>
<path style="fill:#f8df8b;stroke:#f8df8b;" d="M461,-128C467,-128 473,-134 473,-140"/>
<path style="fill:#f8df8b;stroke:#f8df8b;" d="M473,-152C473,-158 467,-164 461,-164"/>
<polyline style="fill:none;stroke:black;" points="461,-164 357,-164 "/>
<path style="fill:none;stroke:black;" d="M357,-164C351,-164 345,-158 345,-152"/>
<polyline style="fill:none;stroke:black;" points="345,-152 345,-140 "/>
<path style="fill:none;stroke:black;" d="M345,-140C345,-134 351,-128 357,-128"/>
<polyline style="fill:none;stroke:black;" points="357,-128 461,-128 "/>
<path style="fill:none;stroke:black;" d="M461,-128C467,-128 473,-134 473,-140"/>
<polyline style="fill:none;stroke:black;" points="473,-140 473,-152 "/>
<path style="fill:none;stroke:black;" d="M473,-152C473,-158 467,-164 461,-164"/>
<text text-anchor="middle" x="409" y="-141.4" style="font-family:Arial;font-size:14.00;">rjack&#45;logback</text>
</a>
</g>
<!-- rjack&#45;jets3t&#45;&gt;rjack&#45;logback -->
<g id="edge8" class="edge"><title>rjack&#45;jets3t&#45;&gt;rjack&#45;logback</title>
<path style="fill:none;stroke:black;stroke-dasharray:5,2;" d="M311,-310C318,-305 325,-299 331,-292 362,-256 386,-205 398,-174"/>
<polygon style="fill:black;stroke:black;" points="401.536,-174.585 402,-164 395.036,-171.985 401.536,-174.585"/>
<text text-anchor="middle" x="379" y="-249.9" style="font-family:Times New Roman;font-size:14.00;">dev</text>
</g>
<!-- rjack&#45;httpclient&#45;&gt;rjack&#45;commons&#45;codec -->
<g id="edge13" class="edge"><title>rjack&#45;httpclient&#45;&gt;rjack&#45;commons&#45;codec</title>
<path style="fill:none;stroke:black;" d="M184,-236C166,-218 139,-191 118,-171"/>
<polygon style="fill:black;stroke:black;" points="120.546,-168.596 111,-164 115.596,-173.546 120.546,-168.596"/>
</g>
<!-- rjack&#45;httpclient&#45;&gt;rjack&#45;slf4j -->
<g id="edge17" class="edge"><title>rjack&#45;httpclient&#45;&gt;rjack&#45;slf4j</title>
<path style="fill:none;stroke:black;" d="M211,-236C225,-205 257,-143 303,-108 316,-98 332,-90 347,-85"/>
<polygon style="fill:black;stroke:black;" points="348.427,-88.2259 357,-82 346.416,-81.5212 348.427,-88.2259"/>
</g>
<!-- rjack&#45;httpclient&#45;&gt;rjack&#45;logback -->
<g id="edge15" class="edge"><title>rjack&#45;httpclient&#45;&gt;rjack&#45;logback</title>
<path style="fill:none;stroke:black;stroke-dasharray:5,2;" d="M231,-236C256,-221 293,-199 326,-182 335,-178 345,-172 354,-168"/>
<polygon style="fill:black;stroke:black;" points="355.283,-171.26 363,-164 352.44,-164.863 355.283,-171.26"/>
<text text-anchor="middle" x="339" y="-195.9" style="font-family:Times New Roman;font-size:14.00;">dev</text>
</g>
<!-- rjack&#45;logback&#45;&gt;rjack&#45;slf4j -->
<g id="edge25" class="edge"><title>rjack&#45;logback&#45;&gt;rjack&#45;slf4j</title>
<path style="fill:none;stroke:black;" d="M409,-128C409,-119 409,-110 409,-100"/>
<polygon style="fill:black;stroke:black;" points="412.5,-100 409,-90 405.5,-100 412.5,-100"/>
</g>
<!-- rjack&#45;rome -->
<g id="node11" class="node"><title>rjack&#45;rome</title>
<a xlink:href="rome/" xlink:title="rjack&#45;rome" target="_parent">
<polygon style="fill:#f8df8b;stroke:#f8df8b;" points="649,-346 561,-346 549,-334 549,-322 561,-310 649,-310 661,-322 661,-334 649,-346"/>
<path style="fill:#f8df8b;stroke:#f8df8b;" d="M561,-346C555,-346 549,-340 549,-334"/>
<path style="fill:#f8df8b;stroke:#f8df8b;" d="M549,-322C549,-316 555,-310 561,-310"/>
<path style="fill:#f8df8b;stroke:#f8df8b;" d="M649,-310C655,-310 661,-316 661,-322"/>
<path style="fill:#f8df8b;stroke:#f8df8b;" d="M661,-334C661,-340 655,-346 649,-346"/>
<polyline style="fill:none;stroke:black;" points="649,-346 561,-346 "/>
<path style="fill:none;stroke:black;" d="M561,-346C555,-346 549,-340 549,-334"/>
<polyline style="fill:none;stroke:black;" points="549,-334 549,-322 "/>
<path style="fill:none;stroke:black;" d="M549,-322C549,-316 555,-310 561,-310"/>
<polyline style="fill:none;stroke:black;" points="561,-310 649,-310 "/>
<path style="fill:none;stroke:black;" d="M649,-310C655,-310 661,-316 661,-322"/>
<polyline style="fill:none;stroke:black;" points="661,-322 661,-334 "/>
<path style="fill:none;stroke:black;" d="M661,-334C661,-340 655,-346 649,-346"/>
<text text-anchor="middle" x="605" y="-323.4" style="font-family:Arial;font-size:14.00;">rjack&#45;rome</text>
</a>
</g>
<!-- rjack&#45;jdom -->
<g id="node12" class="node"><title>rjack&#45;jdom</title>
<a xlink:href="jdom/" xlink:title="rjack&#45;jdom" target="_parent">
<polygon style="fill:#f8df8b;stroke:#f8df8b;" points="648,-218 562,-218 550,-206 550,-194 562,-182 648,-182 660,-194 660,-206 648,-218"/>
<path style="fill:#f8df8b;stroke:#f8df8b;" d="M562,-218C556,-218 550,-212 550,-206"/>
<path style="fill:#f8df8b;stroke:#f8df8b;" d="M550,-194C550,-188 556,-182 562,-182"/>
<path style="fill:#f8df8b;stroke:#f8df8b;" d="M648,-182C654,-182 660,-188 660,-194"/>
<path style="fill:#f8df8b;stroke:#f8df8b;" d="M660,-206C660,-212 654,-218 648,-218"/>
<polyline style="fill:none;stroke:black;" points="648,-218 562,-218 "/>
<path style="fill:none;stroke:black;" d="M562,-218C556,-218 550,-212 550,-206"/>
<polyline style="fill:none;stroke:black;" points="550,-206 550,-194 "/>
<path style="fill:none;stroke:black;" d="M550,-194C550,-188 556,-182 562,-182"/>
<polyline style="fill:none;stroke:black;" points="562,-182 648,-182 "/>
<path style="fill:none;stroke:black;" d="M648,-182C654,-182 660,-188 660,-194"/>
<polyline style="fill:none;stroke:black;" points="660,-194 660,-206 "/>
<path style="fill:none;stroke:black;" d="M660,-206C660,-212 654,-218 648,-218"/>
<text text-anchor="middle" x="605" y="-195.4" style="font-family:Arial;font-size:14.00;">rjack&#45;jdom</text>
</a>
</g>
<!-- rjack&#45;rome&#45;&gt;rjack&#45;jdom -->
<g id="edge11" class="edge"><title>rjack&#45;rome&#45;&gt;rjack&#45;jdom</title>
<path style="fill:none;stroke:black;" d="M605,-310C605,-289 605,-253 605,-228"/>
<polygon style="fill:black;stroke:black;" points="608.5,-228 605,-218 601.5,-228 608.5,-228"/>
</g>
<!-- rjack&#45;jetty -->
<g id="node17" class="node"><title>rjack&#45;jetty</title>
<a xlink:href="jetty/" xlink:title="rjack&#45;jetty" target="_parent">
<polygon style="fill:#f8df8b;stroke:#f8df8b;" points="508,-272 424,-272 412,-260 412,-248 424,-236 508,-236 520,-248 520,-260 508,-272"/>
<path style="fill:#f8df8b;stroke:#f8df8b;" d="M424,-272C418,-272 412,-266 412,-260"/>
<path style="fill:#f8df8b;stroke:#f8df8b;" d="M412,-248C412,-242 418,-236 424,-236"/>
<path style="fill:#f8df8b;stroke:#f8df8b;" d="M508,-236C514,-236 520,-242 520,-248"/>
<path style="fill:#f8df8b;stroke:#f8df8b;" d="M520,-260C520,-266 514,-272 508,-272"/>
<polyline style="fill:none;stroke:black;" points="508,-272 424,-272 "/>
<path style="fill:none;stroke:black;" d="M424,-272C418,-272 412,-266 412,-260"/>
<polyline style="fill:none;stroke:black;" points="412,-260 412,-248 "/>
<path style="fill:none;stroke:black;" d="M412,-248C412,-242 418,-236 424,-236"/>
<polyline style="fill:none;stroke:black;" points="424,-236 508,-236 "/>
<path style="fill:none;stroke:black;" d="M508,-236C514,-236 520,-242 520,-248"/>
<polyline style="fill:none;stroke:black;" points="520,-248 520,-260 "/>
<path style="fill:none;stroke:black;" d="M520,-260C520,-266 514,-272 508,-272"/>
<text text-anchor="middle" x="466" y="-249.4" style="font-family:Arial;font-size:14.00;">rjack&#45;jetty</text>
</a>
</g>
<!-- rjack&#45;jetty&#45;&gt;rjack&#45;slf4j -->
<g id="edge23" class="edge"><title>rjack&#45;jetty&#45;&gt;rjack&#45;slf4j</title>
<path style="fill:none;stroke:black;stroke-dasharray:5,2;" d="M474,-236C484,-210 499,-163 482,-128 476,-115 465,-104 453,-96"/>
<polygon style="fill:black;stroke:black;" points="455.1,-93.2 445,-90 450.9,-98.8 455.1,-93.2"/>
<text text-anchor="middle" x="500" y="-141.9" style="font-family:Times New Roman;font-size:14.00;">opt</text>
</g>
<!-- rjack&#45;jetty&#45;&gt;rjack&#45;logback -->
<g id="edge21" class="edge"><title>rjack&#45;jetty&#45;&gt;rjack&#45;logback</title>
<path style="fill:none;stroke:black;stroke-dasharray:5,2;" d="M456,-236C447,-219 434,-193 423,-173"/>
<polygon style="fill:black;stroke:black;" points="425.916,-171.042 418,-164 419.797,-174.441 425.916,-171.042"/>
<text text-anchor="middle" x="459" y="-195.9" style="font-family:Times New Roman;font-size:14.00;">dev</text>
</g>
<!-- rjack&#45;jetty&#45;jsp -->
<g id="node18" class="node"><title>rjack&#45;jetty&#45;jsp</title>
<a xlink:href="jetty-jsp/" xlink:title="rjack&#45;jetty&#45;jsp" target="_parent">
<polygon style="fill:#f8df8b;stroke:#f8df8b;" points="519,-346 413,-346 401,-334 401,-322 413,-310 519,-310 531,-322 531,-334 519,-346"/>
<path style="fill:#f8df8b;stroke:#f8df8b;" d="M413,-346C407,-346 401,-340 401,-334"/>
<path style="fill:#f8df8b;stroke:#f8df8b;" d="M401,-322C401,-316 407,-310 413,-310"/>
<path style="fill:#f8df8b;stroke:#f8df8b;" d="M519,-310C525,-310 531,-316 531,-322"/>
<path style="fill:#f8df8b;stroke:#f8df8b;" d="M531,-334C531,-340 525,-346 519,-346"/>
<polyline style="fill:none;stroke:black;" points="519,-346 413,-346 "/>
<path style="fill:none;stroke:black;" d="M413,-346C407,-346 401,-340 401,-334"/>
<polyline style="fill:none;stroke:black;" points="401,-334 401,-322 "/>
<path style="fill:none;stroke:black;" d="M401,-322C401,-316 407,-310 413,-310"/>
<polyline style="fill:none;stroke:black;" points="413,-310 519,-310 "/>
<path style="fill:none;stroke:black;" d="M519,-310C525,-310 531,-316 531,-322"/>
<polyline style="fill:none;stroke:black;" points="531,-322 531,-334 "/>
<path style="fill:none;stroke:black;" d="M531,-334C531,-340 525,-346 519,-346"/>
<text text-anchor="middle" x="466" y="-323.4" style="font-family:Arial;font-size:14.00;">rjack&#45;jetty&#45;jsp</text>
</a>
</g>
<!-- rjack&#45;jetty&#45;jsp&#45;&gt;rjack&#45;jetty -->
<g id="edge19" class="edge"><title>rjack&#45;jetty&#45;jsp&#45;&gt;rjack&#45;jetty</title>
<path style="fill:none;stroke:black;" d="M466,-310C466,-301 466,-292 466,-282"/>
<polygon style="fill:black;stroke:black;" points="469.5,-282 466,-272 462.5,-282 469.5,-282"/>
</g>
<!-- rjack&#45;commons&#45;dbcp -->
<g id="node24" class="node"><title>rjack&#45;commons&#45;dbcp</title>
<a xlink:href="commons-dbcp/" xlink:title="rjack&#45;commons&#45;dbcp" target="_parent">
<polygon style="fill:#f8df8b;stroke:#f8df8b;" points="716,-164 562,-164 550,-152 550,-140 562,-128 716,-128 728,-140 728,-152 716,-164"/>
<path style="fill:#f8df8b;stroke:#f8df8b;" d="M562,-164C556,-164 550,-158 550,-152"/>
<path style="fill:#f8df8b;stroke:#f8df8b;" d="M550,-140C550,-134 556,-128 562,-128"/>
<path style="fill:#f8df8b;stroke:#f8df8b;" d="M716,-128C722,-128 728,-134 728,-140"/>
<path style="fill:#f8df8b;stroke:#f8df8b;" d="M728,-152C728,-158 722,-164 716,-164"/>
<polyline style="fill:none;stroke:black;" points="716,-164 562,-164 "/>
<path style="fill:none;stroke:black;" d="M562,-164C556,-164 550,-158 550,-152"/>
<polyline style="fill:none;stroke:black;" points="550,-152 550,-140 "/>
<path style="fill:none;stroke:black;" d="M550,-140C550,-134 556,-128 562,-128"/>
<polyline style="fill:none;stroke:black;" points="562,-128 716,-128 "/>
<path style="fill:none;stroke:black;" d="M716,-128C722,-128 728,-134 728,-140"/>
<polyline style="fill:none;stroke:black;" points="728,-140 728,-152 "/>
<path style="fill:none;stroke:black;" d="M728,-152C728,-158 722,-164 716,-164"/>
<text text-anchor="middle" x="639" y="-141.4" style="font-family:Arial;font-size:14.00;">rjack&#45;commons&#45;dbcp</text>
</a>
</g>
<!-- rjack&#45;commons&#45;pool -->
<g id="node26" class="node"><title>rjack&#45;commons&#45;pool</title>
<a xlink:href="commons-pool/" xlink:title="rjack&#45;commons&#45;pool" target="_parent">
<polygon style="fill:#f8df8b;stroke:#f8df8b;" points="714,-90 564,-90 552,-78 552,-66 564,-54 714,-54 726,-66 726,-78 714,-90"/>
<path style="fill:#f8df8b;stroke:#f8df8b;" d="M564,-90C558,-90 552,-84 552,-78"/>
<path style="fill:#f8df8b;stroke:#f8df8b;" d="M552,-66C552,-60 558,-54 564,-54"/>
<path style="fill:#f8df8b;stroke:#f8df8b;" d="M714,-54C720,-54 726,-60 726,-66"/>
<path style="fill:#f8df8b;stroke:#f8df8b;" d="M726,-78C726,-84 720,-90 714,-90"/>
<polyline style="fill:none;stroke:black;" points="714,-90 564,-90 "/>
<path style="fill:none;stroke:black;" d="M564,-90C558,-90 552,-84 552,-78"/>
<polyline style="fill:none;stroke:black;" points="552,-78 552,-66 "/>
<path style="fill:none;stroke:black;" d="M552,-66C552,-60 558,-54 564,-54"/>
<polyline style="fill:none;stroke:black;" points="564,-54 714,-54 "/>
<path style="fill:none;stroke:black;" d="M714,-54C720,-54 726,-60 726,-66"/>
<polyline style="fill:none;stroke:black;" points="726,-66 726,-78 "/>
<path style="fill:none;stroke:black;" d="M726,-78C726,-84 720,-90 714,-90"/>
<text text-anchor="middle" x="639" y="-67.4" style="font-family:Arial;font-size:14.00;">rjack&#45;commons&#45;pool</text>
</a>
</g>
<!-- rjack&#45;commons&#45;dbcp&#45;&gt;rjack&#45;commons&#45;pool -->
<g id="edge28" class="edge"><title>rjack&#45;commons&#45;dbcp&#45;&gt;rjack&#45;commons&#45;pool</title>
<path style="fill:none;stroke:black;" d="M639,-128C639,-119 639,-110 639,-100"/>
<polygon style="fill:black;stroke:black;" points="642.5,-100 639,-90 635.5,-100 642.5,-100"/>
</g>
<!-- rjack&#45;commons&#45;dbutils -->
<g id="node25" class="node"><title>rjack&#45;commons&#45;dbutils</title>
<a xlink:href="commons-dbutils/" xlink:title="rjack&#45;commons&#45;dbutils" target="_parent">
<polygon style="fill:#f8df8b;stroke:#f8df8b;" points="922,-164 758,-164 746,-152 746,-140 758,-128 922,-128 934,-140 934,-152 922,-164"/>
<path style="fill:#f8df8b;stroke:#f8df8b;" d="M758,-164C752,-164 746,-158 746,-152"/>
<path style="fill:#f8df8b;stroke:#f8df8b;" d="M746,-140C746,-134 752,-128 758,-128"/>
<path style="fill:#f8df8b;stroke:#f8df8b;" d="M922,-128C928,-128 934,-134 934,-140"/>
<path style="fill:#f8df8b;stroke:#f8df8b;" d="M934,-152C934,-158 928,-164 922,-164"/>
<polyline style="fill:none;stroke:black;" points="922,-164 758,-164 "/>
<path style="fill:none;stroke:black;" d="M758,-164C752,-164 746,-158 746,-152"/>
<polyline style="fill:none;stroke:black;" points="746,-152 746,-140 "/>
<path style="fill:none;stroke:black;" d="M746,-140C746,-134 752,-128 758,-128"/>
<polyline style="fill:none;stroke:black;" points="758,-128 922,-128 "/>
<path style="fill:none;stroke:black;" d="M922,-128C928,-128 934,-134 934,-140"/>
<polyline style="fill:none;stroke:black;" points="934,-140 934,-152 "/>
<path style="fill:none;stroke:black;" d="M934,-152C934,-158 928,-164 922,-164"/>
<text text-anchor="middle" x="840" y="-141.4" style="font-family:Arial;font-size:14.00;">rjack&#45;commons&#45;dbutils</text>
</a>
</g>
<!-- rjack&#45;tarpit -->
<g id="node29" class="node"><title>rjack&#45;tarpit</title>
<a xlink:href="tarpit/" xlink:title="rjack&#45;tarpit" target="_parent">
<polygon style="fill:#f8df8b;stroke:#f8df8b;" points="453,-36 365,-36 353,-24 353,-12 365,-9.5162e-15 453,-1.14194e-15 465,-12 465,-24 453,-36"/>
<path style="fill:#f8df8b;stroke:#f8df8b;" d="M365,-36C359,-36 353,-30 353,-24"/>
<path style="fill:#f8df8b;stroke:#f8df8b;" d="M353,-12C353,-6 359,-1.00872e-14 365,-9.5162e-15"/>
<path style="fill:#f8df8b;stroke:#f8df8b;" d="M453,-1.14194e-15C459,-5.70972e-16 465,-6 465,-12"/>
<path style="fill:#f8df8b;stroke:#f8df8b;" d="M465,-24C465,-30 459,-36 453,-36"/>
<polyline style="fill:none;stroke:black;" points="453,-36 365,-36 "/>
<path style="fill:none;stroke:black;" d="M365,-36C359,-36 353,-30 353,-24"/>
<polyline style="fill:none;stroke:black;" points="353,-24 353,-12 "/>
<path style="fill:none;stroke:black;" d="M353,-12C353,-6 359,-1.00872e-14 365,-9.5162e-15"/>
<polyline style="fill:none;stroke:black;" points="365,-9.5162e-15 453,-1.14194e-15 "/>
<path style="fill:none;stroke:black;" d="M453,-1.14194e-15C459,-5.70972e-16 465,-6 465,-12"/>
<polyline style="fill:none;stroke:black;" points="465,-12 465,-24 "/>
<path style="fill:none;stroke:black;" d="M465,-24C465,-30 459,-36 453,-36"/>
<text text-anchor="middle" x="409" y="-13.4" style="font-family:Arial;font-size:14.00;">rjack&#45;tarpit</text>
</a>
</g>
</g>
</svg>
