<?xml version="1.0" encoding="UTF-8" standalone="no"?>
<!DOCTYPE svg PUBLIC "-//W3C//DTD SVG 1.0//EN"
 "http://www.w3.org/TR/2001/REC-SVG-20010904/DTD/svg10.dtd" [
 <!ATTLIST svg xmlns:xlink CDATA #FIXED "http://www.w3.org/1999/xlink">
]>
<!-- Generated by Graphviz version 2.20.3 (Tue Mar &#160;3 02:10:10 UTC 2009)
     For user: (david) David -->
<!-- Title: RJack Gem Dependency Graph Pages: 1 -->
<svg width="540pt" height="203pt"
 viewBox="0.00 0.00 540.00 202.93" xmlns="http://www.w3.org/2000/svg" xmlns:xlink="http://www.w3.org/1999/xlink">
<g id="graph0" class="graph" transform="scale(0.573248 0.573248) rotate(0) translate(4 350)">
<title>RJack Gem Dependency Graph</title>
<polygon style="fill:white;stroke:white;" points="-4,4 -4,-350 938,-350 938,4 -4,4"/>
<!-- rjack&#45;jets3t -->
<g id="node1" class="node"><title>rjack&#45;jets3t</title>
<a xlink:href="jets3t/" xlink:title="rjack&#45;jets3t" target="_parent">
<polygon style="fill:#f8df8b;stroke:black;" points="339,-346 225,-346 225,-310 339,-310 339,-346"/>
<text text-anchor="middle" x="282" y="-323.4" style="font-family:Arial;font-size:14.00;">rjack&#45;jets3t</text>
</a>
</g>
<!-- rjack&#45;httpclient -->
<g id="node3" class="node"><title>rjack&#45;httpclient</title>
<a xlink:href="httpclient-3/" xlink:title="rjack&#45;httpclient&#45;[3,4]" target="_parent">
<polygon style="fill:#f8df8b;stroke:black;" points="117,-236 117,-272 289,-272 289,-236 117,-236"/>
<text text-anchor="middle" x="203" y="-252.4" style="font-family:Arial;font-size:14.00;">rjack&#45;httpclient&#45;[3,4]</text>
</a>
</g>
<!-- rjack&#45;jets3t&#45;&gt;rjack&#45;httpclient -->
<g id="edge2" class="edge"><title>rjack&#45;jets3t&#45;&gt;rjack&#45;httpclient</title>
<path style="fill:none;stroke:black;" d="M262,-310C252,-300 240,-289 229,-279"/>
<polygon style="fill:black;stroke:black;" points="231.546,-276.596 222,-272 226.596,-281.546 231.546,-276.596"/>
</g>
<!-- rjack&#45;commons&#45;codec -->
<g id="node5" class="node"><title>rjack&#45;commons&#45;codec</title>
<a xlink:href="commons-codec/" xlink:title="rjack&#45;commons&#45;codec" target="_parent">
<polygon style="fill:#f8df8b;stroke:black;" points="186,-164 4.4402e-14,-164 1.9984e-15,-128 186,-128 186,-164"/>
<text text-anchor="middle" x="93" y="-141.4" style="font-family:Arial;font-size:14.00;">rjack&#45;commons&#45;codec</text>
</a>
</g>
<!-- rjack&#45;jets3t&#45;&gt;rjack&#45;commons&#45;codec -->
<g id="edge4" class="edge"><title>rjack&#45;jets3t&#45;&gt;rjack&#45;commons&#45;codec</title>
<path style="fill:none;stroke:black;" d="M225,-316C180,-306 123,-290 108,-272 86,-245 86,-202 89,-174"/>
<polygon style="fill:black;stroke:black;" points="92.4875,-174.299 90,-164 85.5222,-173.602 92.4875,-174.299"/>
</g>
<!-- rjack&#45;slf4j -->
<g id="node7" class="node"><title>rjack&#45;slf4j</title>
<a xlink:href="slf4j/" xlink:title="rjack&#45;slf4j" target="_parent">
<polygon style="fill:#f8df8b;stroke:black;" points="461,-90 357,-90 357,-54 461,-54 461,-90"/>
<text text-anchor="middle" x="409" y="-67.4" style="font-family:Arial;font-size:14.00;">rjack&#45;slf4j</text>
</a>
</g>
<!-- rjack&#45;jets3t&#45;&gt;rjack&#45;slf4j -->
<g id="edge6" class="edge"><title>rjack&#45;jets3t&#45;&gt;rjack&#45;slf4j</title>
<path style="fill:none;stroke:black;" d="M287,-310C290,-299 294,-284 298,-272 315,-208 299,-183 336,-128 344,-115 356,-105 368,-96"/>
<polygon style="fill:black;stroke:black;" points="370.1,-98.8 376,-90 365.9,-93.2 370.1,-98.8"/>
</g>
<!-- rjack&#45;logback -->
<g id="node9" class="node"><title>rjack&#45;logback</title>
<a xlink:href="logback/" xlink:title="rjack&#45;logback" target="_parent">
<polygon style="fill:#f8df8b;stroke:black;" points="473,-164 345,-164 345,-128 473,-128 473,-164"/>
<text text-anchor="middle" x="409" y="-141.4" style="font-family:Arial;font-size:14.00;">rjack&#45;logback</text>
</a>
</g>
<!-- rjack&#45;jets3t&#45;&gt;rjack&#45;logback -->
<g id="edge8" class="edge"><title>rjack&#45;jets3t&#45;&gt;rjack&#45;logback</title>
<path style="fill:none;stroke:black;stroke-dasharray:5,2;" d="M311,-310C318,-305 325,-299 331,-292 362,-256 386,-205 398,-174"/>
<polygon style="fill:black;stroke:black;" points="401.536,-174.585 402,-164 395.036,-171.985 401.536,-174.585"/>
<text text-anchor="middle" x="379" y="-249.9" style="font-family:Times New Roman;font-size:14.00;">dev</text>
</g>
<!-- rjack&#45;httpclient&#45;&gt;rjack&#45;commons&#45;codec -->
<g id="edge13" class="edge"><title>rjack&#45;httpclient&#45;&gt;rjack&#45;commons&#45;codec</title>
<path style="fill:none;stroke:black;" d="M184,-236C166,-218 139,-191 118,-171"/>
<polygon style="fill:black;stroke:black;" points="120.546,-168.596 111,-164 115.596,-173.546 120.546,-168.596"/>
</g>
<!-- rjack&#45;httpclient&#45;&gt;rjack&#45;slf4j -->
<g id="edge17" class="edge"><title>rjack&#45;httpclient&#45;&gt;rjack&#45;slf4j</title>
<path style="fill:none;stroke:black;" d="M211,-236C225,-205 257,-143 303,-108 316,-98 332,-90 347,-85"/>
<polygon style="fill:black;stroke:black;" points="348.427,-88.2259 357,-82 346.416,-81.5212 348.427,-88.2259"/>
</g>
<!-- rjack&#45;httpclient&#45;&gt;rjack&#45;logback -->
<g id="edge15" class="edge"><title>rjack&#45;httpclient&#45;&gt;rjack&#45;logback</title>
<path style="fill:none;stroke:black;stroke-dasharray:5,2;" d="M231,-236C256,-221 293,-199 326,-182 335,-178 345,-172 354,-168"/>
<polygon style="fill:black;stroke:black;" points="355.283,-171.26 363,-164 352.44,-164.863 355.283,-171.26"/>
<text text-anchor="middle" x="339" y="-195.9" style="font-family:Times New Roman;font-size:14.00;">dev</text>
</g>
<!-- rjack&#45;logback&#45;&gt;rjack&#45;slf4j -->
<g id="edge25" class="edge"><title>rjack&#45;logback&#45;&gt;rjack&#45;slf4j</title>
<path style="fill:none;stroke:black;" d="M409,-128C409,-119 409,-110 409,-100"/>
<polygon style="fill:black;stroke:black;" points="412.5,-100 409,-90 405.5,-100 412.5,-100"/>
</g>
<!-- rjack&#45;rome -->
<g id="node11" class="node"><title>rjack&#45;rome</title>
<a xlink:href="rome/" xlink:title="rjack&#45;rome" target="_parent">
<polygon style="fill:#f8df8b;stroke:black;" points="661,-346 549,-346 549,-310 661,-310 661,-346"/>
<text text-anchor="middle" x="605" y="-323.4" style="font-family:Arial;font-size:14.00;">rjack&#45;rome</text>
</a>
</g>
<!-- rjack&#45;jdom -->
<g id="node12" class="node"><title>rjack&#45;jdom</title>
<a xlink:href="jdom/" xlink:title="rjack&#45;jdom" target="_parent">
<polygon style="fill:#f8df8b;stroke:black;" points="660,-218 550,-218 550,-182 660,-182 660,-218"/>
<text text-anchor="middle" x="605" y="-195.4" style="font-family:Arial;font-size:14.00;">rjack&#45;jdom</text>
</a>
</g>
<!-- rjack&#45;rome&#45;&gt;rjack&#45;jdom -->
<g id="edge11" class="edge"><title>rjack&#45;rome&#45;&gt;rjack&#45;jdom</title>
<path style="fill:none;stroke:black;" d="M605,-310C605,-289 605,-253 605,-228"/>
<polygon style="fill:black;stroke:black;" points="608.5,-228 605,-218 601.5,-228 608.5,-228"/>
</g>
<!-- rjack&#45;jetty -->
<g id="node17" class="node"><title>rjack&#45;jetty</title>
<a xlink:href="jetty/" xlink:title="rjack&#45;jetty" target="_parent">
<polygon style="fill:#f8df8b;stroke:black;" points="520,-272 412,-272 412,-236 520,-236 520,-272"/>
<text text-anchor="middle" x="466" y="-249.4" style="font-family:Arial;font-size:14.00;">rjack&#45;jetty</text>
</a>
</g>
<!-- rjack&#45;jetty&#45;&gt;rjack&#45;slf4j -->
<g id="edge23" class="edge"><title>rjack&#45;jetty&#45;&gt;rjack&#45;slf4j</title>
<path style="fill:none;stroke:black;stroke-dasharray:5,2;" d="M474,-236C484,-210 499,-163 482,-128 476,-115 465,-104 453,-96"/>
<polygon style="fill:black;stroke:black;" points="455.1,-93.2 445,-90 450.9,-98.8 455.1,-93.2"/>
<text text-anchor="middle" x="500" y="-141.9" style="font-family:Times New Roman;font-size:14.00;">opt</text>
</g>
<!-- rjack&#45;jetty&#45;&gt;rjack&#45;logback -->
<g id="edge21" class="edge"><title>rjack&#45;jetty&#45;&gt;rjack&#45;logback</title>
<path style="fill:none;stroke:black;stroke-dasharray:5,2;" d="M456,-236C447,-219 434,-193 423,-173"/>
<polygon style="fill:black;stroke:black;" points="425.916,-171.042 418,-164 419.797,-174.441 425.916,-171.042"/>
<text text-anchor="middle" x="459" y="-195.9" style="font-family:Times New Roman;font-size:14.00;">dev</text>
</g>
<!-- rjack&#45;jetty&#45;jsp -->
<g id="node18" class="node"><title>rjack&#45;jetty&#45;jsp</title>
<a xlink:href="jetty-jsp/" xlink:title="rjack&#45;jetty&#45;jsp" target="_parent">
<polygon style="fill:#f8df8b;stroke:black;" points="531,-346 401,-346 401,-310 531,-310 531,-346"/>
<text text-anchor="middle" x="466" y="-323.4" style="font-family:Arial;font-size:14.00;">rjack&#45;jetty&#45;jsp</text>
</a>
</g>
<!-- rjack&#45;jetty&#45;jsp&#45;&gt;rjack&#45;jetty -->
<g id="edge19" class="edge"><title>rjack&#45;jetty&#45;jsp&#45;&gt;rjack&#45;jetty</title>
<path style="fill:none;stroke:black;" d="M466,-310C466,-301 466,-292 466,-282"/>
<polygon style="fill:black;stroke:black;" points="469.5,-282 466,-272 462.5,-282 469.5,-282"/>
</g>
<!-- rjack&#45;commons&#45;dbcp -->
<g id="node24" class="node"><title>rjack&#45;commons&#45;dbcp</title>
<a xlink:href="commons-dbcp/" xlink:title="rjack&#45;commons&#45;dbcp" target="_parent">
<polygon style="fill:#f8df8b;stroke:black;" points="728,-164 550,-164 550,-128 728,-128 728,-164"/>
<text text-anchor="middle" x="639" y="-141.4" style="font-family:Arial;font-size:14.00;">rjack&#45;commons&#45;dbcp</text>
</a>
</g>
<!-- rjack&#45;commons&#45;pool -->
<g id="node26" class="node"><title>rjack&#45;commons&#45;pool</title>
<a xlink:href="commons-pool/" xlink:title="rjack&#45;commons&#45;pool" target="_parent">
<polygon style="fill:#f8df8b;stroke:black;" points="726,-90 552,-90 552,-54 726,-54 726,-90"/>
<text text-anchor="middle" x="639" y="-67.4" style="font-family:Arial;font-size:14.00;">rjack&#45;commons&#45;pool</text>
</a>
</g>
<!-- rjack&#45;commons&#45;dbcp&#45;&gt;rjack&#45;commons&#45;pool -->
<g id="edge28" class="edge"><title>rjack&#45;commons&#45;dbcp&#45;&gt;rjack&#45;commons&#45;pool</title>
<path style="fill:none;stroke:black;" d="M639,-128C639,-119 639,-110 639,-100"/>
<polygon style="fill:black;stroke:black;" points="642.5,-100 639,-90 635.5,-100 642.5,-100"/>
</g>
<!-- rjack&#45;commons&#45;dbutils -->
<g id="node25" class="node"><title>rjack&#45;commons&#45;dbutils</title>
<a xlink:href="commons-dbutils/" xlink:title="rjack&#45;commons&#45;dbutils" target="_parent">
<polygon style="fill:#f8df8b;stroke:black;" points="934,-164 746,-164 746,-128 934,-128 934,-164"/>
<text text-anchor="middle" x="840" y="-141.4" style="font-family:Arial;font-size:14.00;">rjack&#45;commons&#45;dbutils</text>
</a>
</g>
<!-- rjack&#45;tarpit -->
<g id="node29" class="node"><title>rjack&#45;tarpit</title>
<a xlink:href="tarpit/" xlink:title="rjack&#45;tarpit" target="_parent">
<polygon style="fill:#f8df8b;stroke:black;" points="465,-36 353,-36 353,-1.06581e-14 465,-0 465,-36"/>
<text text-anchor="middle" x="409" y="-13.4" style="font-family:Arial;font-size:14.00;">rjack&#45;tarpit</text>
</a>
</g>
</g>
</svg>
